# xmcd
#
# Track frame offsets: 
#        150
#        14830
#        26880
#        41228
#        55800
#        77666
#        91078
#        102471
#        118460
#        139724
#        156505
#        166303
#
# Disc length: 2435 seconds
#
# Revision: 1
# Processed by: cddbd v1.5.2PL0 Copyright (c) Steve Scherf et al.
# Submitted via: ExactAudioCopyFreeDBPlugin 1.0
#
DISCID=a809810c
DTITLE=Holly Nelson - Leaving the Yard
DYEAR=2002
DGENRE=Rock
TTITLE0=Seatbelt
TTITLE1=Easy
TTITLE2=Maybe Grace
TTITLE3=Masterpiece
TTITLE4=Hey Ranger
TTITLE5=I Won't Back Down
TTITLE6=Rhyme and Reason
TTITLE7=Spring Cleaning
TTITLE8=The Water
TTITLE9=Wholly Loved
TTITLE10=How About That
TTITLE11=Unpacking
EXTD=
EXTT0=
EXTT1=
EXTT2=
EXTT3=
EXTT4=
EXTT5=
EXTT6=
EXTT7=
EXTT8=
EXTT9=
EXTT10=
EXTT11=
PLAYORDER=
